<svg width="109" height="27" viewBox="0 0 109 27" fill="none" xmlns="http://www.w3.org/2000/svg">
<g clip-path="url(#clip0_768_328)">
<path fill-rule="evenodd" clip-rule="evenodd" d="M45.0355 7.79996V4.39355H37.4168H33.692H33.4664V10.3548H32.3376V13.7612H33.4664V19.4385H37.4168V13.7612H41.9317V10.3548H37.4168V7.79996H45.0355Z" fill="#DA5128"/>
<path d="M64.2234 4.39355H60.2729V19.4386H64.2234V4.39355Z" fill="#DA5128"/>
<path d="M68.1741 7.7999V4.42188L56.3226 4.42188V7.7999L68.1741 7.7999Z" fill="#DA5128"/>
<path fill-rule="evenodd" clip-rule="evenodd" d="M93.5701 7.79991V4.42188H87.6129L84.8225 6.6739V7.79989V19.4384H88.773V7.79991H93.5701Z" fill="#DA5128"/>
<path fill-rule="evenodd" clip-rule="evenodd" d="M76.2161 19.4385C80.346 19.4385 83.6938 16.0706 83.6938 11.916C83.6938 7.76148 80.346 4.39355 76.2161 4.39355C72.0863 4.39355 68.7385 7.76148 68.7385 11.916C68.7385 16.0706 72.0863 19.4385 76.2161 19.4385ZM76.2161 16.0605C78.4759 16.0605 80.3077 14.2177 80.3077 11.9444C80.3077 9.67119 78.4759 7.82834 76.2161 7.82834C73.9565 7.82834 72.1246 9.67119 72.1246 11.9444C72.1246 14.2177 73.9565 16.0605 76.2161 16.0605Z" fill="#DA5128"/>
<mask id="mask0_768_328" style="mask-type:luminance" maskUnits="userSpaceOnUse" x="68" y="4" width="16" height="16">
<path fill-rule="evenodd" clip-rule="evenodd" d="M76.2161 19.4385C80.346 19.4385 83.6938 16.0706 83.6938 11.916C83.6938 7.76148 80.346 4.39355 76.2161 4.39355C72.0863 4.39355 68.7385 7.76148 68.7385 11.916C68.7385 16.0706 72.0863 19.4385 76.2161 19.4385ZM76.2161 16.0605C78.4759 16.0605 80.3077 14.2177 80.3077 11.9444C80.3077 9.67119 78.4759 7.82834 76.2161 7.82834C73.9565 7.82834 72.1246 9.67119 72.1246 11.9444C72.1246 14.2177 73.9565 16.0605 76.2161 16.0605Z" fill="black"/>
</mask>
<g mask="url(#mask0_768_328)">
<path d="M83.6657 11.916C83.6657 16.0549 80.3303 19.4102 76.2161 19.4102V19.4669C80.3615 19.4669 83.7221 16.0862 83.7221 11.916H83.6657ZM76.2161 4.42189C80.3303 4.42189 83.6657 7.77712 83.6657 11.916H83.7221C83.7221 7.74577 80.3615 4.36511 76.2161 4.36511V4.42189ZM68.7666 11.916C68.7666 7.77712 72.102 4.42189 76.2161 4.42189V4.36511C72.0708 4.36511 68.7102 7.74577 68.7102 11.916H68.7666ZM76.2161 19.4102C72.102 19.4102 68.7666 16.0549 68.7666 11.916H68.7102C68.7102 16.0862 72.0708 19.4669 76.2161 19.4669V19.4102ZM80.2795 11.9444C80.2795 14.202 78.4603 16.0321 76.2161 16.0321V16.0889C78.4914 16.0889 80.336 14.2333 80.336 11.9444H80.2795ZM76.2161 7.85669C78.4603 7.85669 80.2795 9.68681 80.2795 11.9444H80.336C80.336 9.65546 78.4914 7.79992 76.2161 7.79992V7.85669ZM72.1527 11.9444C72.1527 9.68681 73.972 7.85669 76.2161 7.85669V7.79992C73.9409 7.79992 72.0963 9.65546 72.0963 11.9444H72.1527ZM76.2161 16.0321C73.972 16.0321 72.1527 14.202 72.1527 11.9444H72.0963C72.0963 14.2333 73.9409 16.0889 76.2161 16.0889V16.0321Z" fill="black"/>
</g>
<path fill-rule="evenodd" clip-rule="evenodd" d="M107.803 7.41199C108.409 8.30931 108.827 9.34519 109 10.4626L104.801 12.0001L104.801 12.0012L98.4842 14.3142C99.2348 15.2085 100.357 15.7766 101.612 15.7766C102.559 15.7766 103.431 15.453 104.124 14.9097L106.215 17.5607C104.946 18.5594 103.348 19.1547 101.612 19.1547C97.4822 19.1547 94.1344 15.7867 94.1344 11.6321C94.1344 7.47755 97.4822 4.10962 101.612 4.10962C104.14 4.10962 106.376 5.37188 107.729 7.30416L107.76 7.29279L107.803 7.41199ZM97.5691 11.0242L104.302 8.55893C103.583 7.92714 102.642 7.5444 101.612 7.5444C99.5674 7.5444 97.8731 9.05308 97.5691 11.0242Z" fill="#DA5128"/>
<mask id="mask1_768_328" style="mask-type:luminance" maskUnits="userSpaceOnUse" x="94" y="4" width="15" height="16">
<path fill-rule="evenodd" clip-rule="evenodd" d="M107.803 7.41199C108.409 8.30931 108.827 9.34519 109 10.4626L104.801 12.0001L104.801 12.0012L98.4842 14.3142C99.2348 15.2085 100.357 15.7766 101.612 15.7766C102.559 15.7766 103.431 15.453 104.124 14.9097L106.215 17.5607C104.946 18.5594 103.348 19.1547 101.612 19.1547C97.4822 19.1547 94.1344 15.7867 94.1344 11.6321C94.1344 7.47755 97.4822 4.10962 101.612 4.10962C104.14 4.10962 106.376 5.37188 107.729 7.30416L107.76 7.29279L107.803 7.41199ZM97.5691 11.0242L104.302 8.55893C103.583 7.92714 102.642 7.5444 101.612 7.5444C99.5674 7.5444 97.8731 9.05308 97.5691 11.0242Z" fill="black"/>
</mask>
<g mask="url(#mask1_768_328)">
<path d="M109 10.4625L109.01 10.4892L109.031 10.4812L109.028 10.4581L109 10.4625ZM107.803 7.41195L107.777 7.42165L107.778 7.42497L107.78 7.42789L107.803 7.41195ZM104.801 12.0001L104.791 11.9734L104.765 11.9831L104.774 12.0098L104.801 12.0001ZM104.801 12.0012L104.811 12.0279L104.837 12.0182L104.828 11.9915L104.801 12.0012ZM98.4842 14.3141L98.4745 14.2874L98.4365 14.3014L98.4626 14.3324L98.4842 14.3141ZM104.124 14.9097L104.146 14.892L104.129 14.87L104.107 14.8873L104.124 14.9097ZM106.215 17.5607L106.233 17.5829L106.255 17.5653L106.237 17.5431L106.215 17.5607ZM107.729 7.30411L107.706 7.32046L107.718 7.3382L107.739 7.33078L107.729 7.30411ZM107.76 7.29274L107.787 7.28305L107.777 7.25638L107.75 7.26608L107.76 7.29274ZM104.302 8.55888L104.312 8.58557L104.357 8.56913L104.321 8.5375L104.302 8.55888ZM97.5691 11.0242L97.5411 11.0198L97.5338 11.0673L97.5787 11.0508L97.5691 11.0242ZM109.028 10.4581C108.854 9.33653 108.434 8.2967 107.826 7.39601L107.78 7.42789C108.383 8.32183 108.799 9.35378 108.972 10.4669L109.028 10.4581ZM104.81 12.0268L109.01 10.4892L108.99 10.4359L104.791 11.9734L104.81 12.0268ZM104.828 11.9915L104.827 11.9904L104.774 12.0098L104.775 12.0109L104.828 11.9915ZM98.4938 14.3408L104.811 12.0279L104.791 11.9745L98.4745 14.2874L98.4938 14.3408ZM101.612 15.7482C100.366 15.7482 99.2512 15.1841 98.5057 14.2958L98.4626 14.3324C99.2183 15.2329 100.349 15.8049 101.612 15.8049V15.7482ZM104.107 14.8873C103.418 15.4268 102.552 15.7482 101.612 15.7482V15.8049C102.566 15.8049 103.443 15.4791 104.141 14.9321L104.107 14.8873ZM106.237 17.5431L104.146 14.892L104.102 14.9273L106.193 17.5783L106.237 17.5431ZM101.612 19.1829C103.355 19.1829 104.959 18.5854 106.233 17.5829L106.198 17.5383C104.934 18.5332 103.342 19.1261 101.612 19.1261V19.1829ZM94.1061 11.6321C94.1061 15.8023 97.4666 19.1829 101.612 19.1829V19.1261C97.4979 19.1261 94.1625 15.7709 94.1625 11.6321H94.1061ZM101.612 4.08118C97.4666 4.08118 94.1061 7.46183 94.1061 11.6321H94.1625C94.1625 7.49319 97.4979 4.13795 101.612 4.13795V4.08118ZM107.752 7.28777C106.393 5.34827 104.15 4.08118 101.612 4.08118V4.13795C104.131 4.13795 106.358 5.39542 107.706 7.32046L107.752 7.28777ZM107.75 7.26608L107.719 7.27744L107.739 7.33078L107.77 7.31943L107.75 7.26608ZM107.83 7.40223L107.787 7.28305L107.733 7.30246L107.777 7.42165L107.83 7.40223ZM104.292 8.53221L97.5594 10.9975L97.5787 11.0508L104.312 8.58557L104.292 8.53221ZM101.612 7.57275C102.635 7.57275 103.569 7.95283 104.283 8.58026L104.321 8.5375C103.596 7.90138 102.649 7.51598 101.612 7.51598V7.57275ZM97.597 11.0285C97.899 9.07102 99.5816 7.57275 101.612 7.57275V7.51598C99.5533 7.51598 97.8473 9.03507 97.5411 11.0198L97.597 11.0285Z" fill="black"/>
</g>
<path fill-rule="evenodd" clip-rule="evenodd" d="M5.30502 1H11.0104L13.2143 7.06993L14.3818 6.02838H26L24.0032 11.2915H14.747L15.642 13.7567L15.7952 14.1579L16.9752 13.1053H23.6402L21.6432 18.3684H17.3164L20.0872 26H14.3818L11.611 18.3684H1.00006L2.81542 13.1053L9.3507 13.1024L9.69912 13.1026L9.04158 11.2915H1L2.81536 6.02838L7.13001 6.02651L5.30502 1Z" fill="#DA5128"/>
<path fill-rule="evenodd" clip-rule="evenodd" d="M55.1796 4.64903V4.39355H46.15V7.77159H51.2432V10.1149C50.5032 9.88523 49.6935 9.75866 48.8449 9.75866C45.3382 9.75866 42.4958 11.9192 42.4958 14.5844C42.4958 17.2496 45.3382 19.4102 48.8449 19.4102C51.925 19.4102 54.4928 17.743 55.0716 15.5311L55.3226 15.6683L56.9386 12.6749L55.1937 11.7214V4.64903H55.1796ZM51.6666 13.5625C51.8019 15.0244 50.6789 16.5715 49.141 16.5715C48.4353 16.5715 47.6689 16.3746 47.1376 16.0109C46.6132 15.6519 46.3192 15.1296 46.3192 14.5844C46.3192 13.487 47.7384 12.5973 49.141 12.5973C50.1852 12.5973 51.0599 12.9522 51.6666 13.5625Z" fill="#DA5128"/>
<path fill-rule="evenodd" clip-rule="evenodd" d="M42.7415 24.8021C42.7415 25.124 42.4361 25.2808 42.1431 25.2808C41.8501 25.2808 41.5365 25.1281 41.5365 24.8021V22.1775H40.5708V24.8186C40.5708 25.6893 41.3342 26.1887 42.1431 26.1887C42.9519 26.1887 43.7195 25.6893 43.7195 24.8186V22.1775H42.7415V24.8021Z" fill="#DA5128"/>
<path fill-rule="evenodd" clip-rule="evenodd" d="M58.4229 22.1279L56.6443 25.9864V26.135H57.6347L57.8658 25.6356H59.4257L59.6609 26.135H60.6513V25.9864L58.8686 22.1279H58.4229ZM58.2001 24.7649L58.6457 23.725L59.0997 24.7649H58.2001Z" fill="#DA5128"/>
<path fill-rule="evenodd" clip-rule="evenodd" d="M58.6788 21.8845C58.7927 21.9319 58.916 21.9523 59.0391 21.944C59.1623 21.9356 59.2817 21.8988 59.3882 21.8364C59.4946 21.7739 59.5851 21.6876 59.6525 21.5843C59.7199 21.4809 59.7623 21.3633 59.7765 21.2407C59.6073 21.1623 59.4381 21.0921 59.2689 21.022C59.1822 21.3026 58.8975 21.154 58.72 21.088C58.1505 20.8569 57.7379 21.088 57.5398 21.6987C57.7049 21.773 57.8617 21.8391 58.0267 21.901C58.1423 21.6038 58.5096 21.8184 58.6788 21.901" fill="#DA5128"/>
<path fill-rule="evenodd" clip-rule="evenodd" d="M46.3688 25.2519C46.2316 25.2461 46.0969 25.2129 45.9728 25.1543C45.8486 25.0956 45.7375 25.0127 45.6459 24.9104C45.5544 24.808 45.4843 24.6884 45.4397 24.5585C45.3952 24.4286 45.3771 24.2911 45.3866 24.1542C45.3728 24.0167 45.3879 23.8779 45.4309 23.7466C45.4739 23.6154 45.544 23.4945 45.6364 23.3919C45.7289 23.2893 45.8419 23.2072 45.968 23.1509C46.0941 23.0945 46.2306 23.0652 46.3688 23.0647C46.5581 23.047 46.7478 23.0952 46.9057 23.2012C47.0637 23.3073 47.1801 23.4646 47.2354 23.6466H48.2299C48.1646 23.2084 47.937 22.8108 47.5923 22.5326C47.2476 22.2543 46.8109 22.1158 46.3688 22.1444C46.1004 22.1347 45.8329 22.1802 45.5829 22.2783C45.3329 22.3764 45.1058 22.525 44.9157 22.7147C44.7256 22.9044 44.5767 23.1312 44.478 23.3809C44.3794 23.6307 44.3333 23.8981 44.3426 24.1665C44.332 24.4351 44.3773 24.7029 44.4755 24.953C44.5737 25.2031 44.7228 25.4302 44.9132 25.6198C45.1036 25.8095 45.3312 25.9575 45.5818 26.0547C45.8323 26.1519 46.1003 26.1961 46.3688 26.1845C46.8224 26.2162 47.2707 26.0717 47.6204 25.7811C47.9702 25.4906 48.1944 25.0763 48.2464 24.6246H47.2519C47.2076 24.8204 47.0936 24.9933 46.931 25.111C46.7685 25.2288 46.5686 25.2832 46.3688 25.2642" fill="#DA5128"/>
<path fill-rule="evenodd" clip-rule="evenodd" d="M38.0204 22.1775H36.5513V26.135H38.041C40.6161 26.135 40.6161 22.1899 38.041 22.1775M38.041 25.2147H37.5417V23.0977H38.0204C39.2584 23.0977 39.2584 25.2147 38.0204 25.2147" fill="#DA5128"/>
<path fill-rule="evenodd" clip-rule="evenodd" d="M50.1902 22.1279L48.4116 25.9864V26.135H49.3979L49.6331 25.6356H51.193L51.4076 26.135H52.3939V25.9864L50.6277 22.1279H50.1902ZM49.9633 24.7649L50.4048 23.725L50.8588 24.7649H49.9633Z" fill="#DA5128"/>
<path fill-rule="evenodd" clip-rule="evenodd" d="M54.61 25.2519C54.4728 25.2461 54.3381 25.2129 54.214 25.1543C54.0898 25.0956 53.9787 25.0127 53.8871 24.9104C53.7956 24.808 53.7254 24.6884 53.6809 24.5585C53.6364 24.4286 53.6183 24.2911 53.6278 24.1542C53.6146 24.0168 53.6302 23.8783 53.6734 23.7473C53.7167 23.6163 53.7867 23.4957 53.8791 23.3933C53.9715 23.2908 54.0842 23.2087 54.21 23.1521C54.3358 23.0956 54.472 23.0658 54.61 23.0647C54.7993 23.047 54.989 23.0952 55.1469 23.2012C55.3048 23.3073 55.4213 23.4646 55.4766 23.6466H56.4711C56.4058 23.2084 56.1782 22.8108 55.8335 22.5326C55.4887 22.2543 55.052 22.1158 54.61 22.1444C54.3416 22.1347 54.0741 22.1802 53.8241 22.2783C53.5741 22.3764 53.347 22.525 53.1569 22.7147C52.9668 22.9044 52.8178 23.1312 52.7192 23.3809C52.6206 23.6307 52.5745 23.8981 52.5837 24.1665C52.5632 24.6531 52.7289 25.1293 53.0471 25.4981C53.3652 25.8668 53.812 26.1005 54.2963 26.1515L54.189 26.5642C54.3128 26.5642 54.5068 26.6054 54.4614 26.7622C54.416 26.9191 54.1147 26.9067 53.9909 26.8035L53.9456 27.3276C54.3582 27.5793 55.0267 27.5835 55.229 27.08C55.2654 27.0143 55.285 26.9406 55.2862 26.8655C55.2875 26.7904 55.2702 26.7161 55.2359 26.6493C55.2017 26.5824 55.1515 26.525 55.0899 26.4821C55.0282 26.4392 54.9569 26.4121 54.8823 26.4032L54.9401 26.1474C55.3408 26.1166 55.7176 25.9446 56.0033 25.6619C56.289 25.3793 56.465 25.0043 56.5 24.604H55.4931C55.4488 24.7997 55.3347 24.9727 55.1722 25.0904C55.0096 25.2081 54.8098 25.2626 54.61 25.2436" fill="#DA5128"/>
<path fill-rule="evenodd" clip-rule="evenodd" d="M34.2569 24.5421H35.6022V23.6425H34.2569V23.0812H35.7178V22.1775H33.25V26.135H35.7714V25.2354H34.2569V24.5421Z" fill="#DA5128"/>
<path fill-rule="evenodd" clip-rule="evenodd" d="M68.8223 22.1775H67.0891V26.135H68.1002V25.1281H68.8223C70.7124 25.1281 70.7124 22.1899 68.8223 22.1816M68.8223 24.2161H68.0919V23.0647H68.8141C69.4042 23.0647 69.3712 24.1955 68.8141 24.1955" fill="#DA5128"/>
<path fill-rule="evenodd" clip-rule="evenodd" d="M93.6404 24.1624C93.6404 26.9026 97.6969 26.9026 97.6969 24.1624C97.6969 21.4223 93.6404 21.4264 93.6404 24.1624ZM94.6803 24.1624C94.6677 24.0248 94.684 23.886 94.728 23.755C94.7721 23.624 94.843 23.5036 94.9362 23.4015C95.0294 23.2994 95.1428 23.2178 95.2693 23.162C95.3958 23.1062 95.5325 23.0774 95.6707 23.0774C95.809 23.0774 95.9457 23.1062 96.0721 23.162C96.1986 23.2178 96.3121 23.2994 96.4053 23.4015C96.4985 23.5036 96.5694 23.624 96.6134 23.755C96.6575 23.886 96.6737 24.0248 96.6611 24.1624C96.6737 24.3001 96.6575 24.4389 96.6134 24.5699C96.5694 24.7009 96.4985 24.8213 96.4053 24.9234C96.3121 25.0255 96.1986 25.1071 96.0721 25.1629C95.9457 25.2187 95.809 25.2475 95.6707 25.2475C95.5325 25.2475 95.3958 25.2187 95.2693 25.1629C95.1428 25.1071 95.0294 25.0255 94.9362 24.9234C94.843 24.8213 94.7721 24.7009 94.728 24.5699C94.684 24.4389 94.6677 24.3001 94.6803 24.1624Z" fill="#DA5128"/>
<path fill-rule="evenodd" clip-rule="evenodd" d="M89.4723 23.7828C89.1133 23.7456 88.8203 23.6796 88.8451 23.3701C88.8781 22.8996 89.9387 22.8542 89.9387 23.3701H90.9002C90.9249 21.6616 87.8505 21.6616 87.8836 23.3701C87.8836 24.2284 88.4613 24.5214 89.3197 24.5833C89.7323 24.6081 90.0418 24.6494 90.0418 24.93C90.0418 25.3922 88.8038 25.4046 88.8038 24.9011H87.8258C87.8051 26.6384 91.024 26.5972 91.024 24.9341C91.024 23.9437 90.2564 23.8447 89.4723 23.758" fill="#DA5128"/>
<path fill-rule="evenodd" clip-rule="evenodd" d="M100.714 24.1128L98.7122 22.1609H98.349V26.1349H99.3931V24.1912L101.386 26.1349H101.749V22.1774H100.714V24.1128Z" fill="#DA5128"/>
<path fill-rule="evenodd" clip-rule="evenodd" d="M92.8274 23.0606H93.2938V22.1775H91.3666V23.0606H91.8288V25.2478H91.3253V26.135H93.3309V25.2478H92.8274V23.0606Z" fill="#DA5128"/>
<path fill-rule="evenodd" clip-rule="evenodd" d="M107.568 22.1775H106.549V26.135H109V25.223H107.568V22.1775Z" fill="#DA5128"/>
<path fill-rule="evenodd" clip-rule="evenodd" d="M103.924 22.1279L102.166 25.9864V26.135H103.157L103.388 25.6356H104.948L105.179 26.135H106.165V25.9864L104.382 22.1279H103.924ZM103.701 24.7649L104.139 23.725L104.593 24.7649H103.701Z" fill="#DA5128"/>
<path fill-rule="evenodd" clip-rule="evenodd" d="M60.8164 24.1624C60.8164 26.9026 64.8771 26.9026 64.8771 24.1624C64.8771 21.4223 60.8164 21.4141 60.8164 24.1624ZM61.8563 24.1624C61.8476 24.0267 61.8668 23.8907 61.9127 23.7626C61.9586 23.6346 62.0303 23.5174 62.1233 23.4182C62.2163 23.319 62.3287 23.2399 62.4535 23.1858C62.5783 23.1318 62.7128 23.1039 62.8488 23.1039C62.9848 23.1039 63.1194 23.1318 63.2442 23.1858C63.3689 23.2399 63.4813 23.319 63.5743 23.4182C63.6674 23.5174 63.739 23.6346 63.785 23.7626C63.8309 23.8907 63.85 24.0267 63.8413 24.1624C63.85 24.2982 63.8309 24.4342 63.785 24.5622C63.739 24.6903 63.6674 24.8075 63.5743 24.9067C63.4813 25.0059 63.3689 25.085 63.2442 25.1391C63.1194 25.1931 62.9848 25.221 62.8488 25.221C62.7128 25.221 62.5783 25.1931 62.4535 25.1391C62.3287 25.085 62.2163 25.0059 62.1233 24.9067C62.0303 24.8075 61.9586 24.6903 61.9127 24.5622C61.8668 24.4342 61.8476 24.2982 61.8563 24.1624Z" fill="#DA5128"/>
<path fill-rule="evenodd" clip-rule="evenodd" d="M74.4841 24.1624C74.4841 26.9026 78.5407 26.9026 78.5407 24.1624C78.5407 21.4223 74.4841 21.4264 74.4841 24.1624ZM75.5241 24.1624C75.5153 24.0267 75.5345 23.8907 75.5804 23.7626C75.6263 23.6346 75.698 23.5174 75.791 23.4182C75.884 23.319 75.9964 23.2399 76.1212 23.1858C76.246 23.1318 76.3805 23.1039 76.5165 23.1039C76.6525 23.1039 76.7871 23.1318 76.9119 23.1858C77.0367 23.2399 77.1491 23.319 77.2421 23.4182C77.3351 23.5174 77.4068 23.6346 77.4527 23.7626C77.4986 23.8907 77.5178 24.0267 77.509 24.1624C77.5178 24.2982 77.4986 24.4342 77.4527 24.5622C77.4068 24.6903 77.3351 24.8075 77.2421 24.9067C77.1491 25.0059 77.0367 25.085 76.9119 25.1391C76.7871 25.1931 76.6525 25.221 76.5165 25.221C76.3805 25.221 76.246 25.1931 76.1212 25.1391C75.9964 25.085 75.884 25.0059 75.791 24.9067C75.698 24.8075 75.6263 24.6903 75.5804 24.5622C75.5345 24.4342 75.5153 24.2982 75.5241 24.1624Z" fill="#DA5128"/>
<path fill-rule="evenodd" clip-rule="evenodd" d="M79.1926 26.135H80.2243V24.8516H81.4953V23.9478H80.2243V23.0812H81.6563V22.1775H79.1926V26.135Z" fill="#DA5128"/>
<path fill-rule="evenodd" clip-rule="evenodd" d="M72.619 22.1774H70.8857V26.135H71.8968V24.9712H72.4209L73.0977 26.135H74.2284V25.9864L73.4567 24.7154C73.7007 24.542 73.8832 24.2953 73.9774 24.0112C74.0717 23.7271 74.0729 23.4203 73.9809 23.1354C73.8888 22.8506 73.7083 22.6025 73.4656 22.4273C73.223 22.252 72.9307 22.1587 72.6313 22.1609M72.6313 24.0427H71.8968V23.0647H72.619C73.1967 23.0647 73.1678 24.0427 72.619 24.0427" fill="#DA5128"/>
<path fill-rule="evenodd" clip-rule="evenodd" d="M85.9194 23.7828C85.5645 23.7456 85.2715 23.6796 85.2921 23.3701C85.3293 22.8996 86.3898 22.8542 86.3898 23.3701H87.3514C87.372 21.6616 84.2976 21.6616 84.3347 23.3701C84.3347 24.2284 84.9083 24.5214 85.7708 24.5833C86.1835 24.6081 86.493 24.6494 86.493 24.93C86.493 25.3922 85.255 25.4046 85.255 24.9011H84.277C84.2563 26.6384 87.4752 26.5972 87.4752 24.9341C87.4752 23.9437 86.7076 23.8447 85.9194 23.758" fill="#DA5128"/>
<path fill-rule="evenodd" clip-rule="evenodd" d="M83.5009 23.0606H83.9631V22.1775H82.0359V23.0606H82.5022V25.2478H81.9988V26.135H84.0044V25.2478H83.5009V23.0606Z" fill="#DA5128"/>
</g>
<defs>
<clipPath id="clip0_768_328">
<rect width="109" height="27" fill="white"/>
</clipPath>
</defs>
</svg>
